<svg xmlns="http://www.w3.org/2000/svg" xmlns:xlink="http://www.w3.org/1999/xlink" version="1.1" x="0px" y="0px" viewBox="0 0 100 125" enable-background="new 0 0 100 100" xml:space="preserve"><rect fill="none" width="100" height="100"/><polygon fill="#DCDCDC" points="89.834,60.843 89.834,53.345 89.195,53.345 89.195,50.944 88.886,50.944 88.886,53.345 88.48,53.345 88.237,53.345   88.237,52.749 87.477,52.749 87.477,53.345 87.016,53.345 87.016,56.106 86.282,56.106 86.282,55.148 85.211,55.148 84.535,48.439   83.689,48.439 83.689,47.542 83.219,47.542 83.219,46.518 82.936,46.518 82.936,47.542 82.617,47.542 82.617,48.439 81.603,48.439   80.926,55.656 79.573,55.656 79.573,54.359 78.671,54.359 78.671,53.4 78.48,53.4 78.48,52.933 77.86,52.933 77.86,53.4   77.297,53.4 77.297,51.509 76.958,51.509 76.958,53.4 76.507,53.4 76.507,52.749 76.225,52.749 76.225,53.4 75.908,53.4   75.908,54.715 74.52,54.715 74.52,58.099 72.641,58.099 72.641,55.843 71.438,55.843 71.438,54.489 70.385,52.835 69.908,52.835   69.908,52.411 69.119,52.411 69.119,52.835 68.881,52.835 67.904,54.339 67.904,58.399 65.498,58.399 65.498,45.918 65.002,45.918   65.002,45.107 64.664,45.107 64.664,45.918 64.145,45.918 64.145,46.52 63.62,46.52 63.62,45.107 63.479,45.107 63.479,46.52   63.057,46.52 63.057,45.446 62.831,45.446 62.831,46.52 62.689,46.52 62.689,46.151 60.828,46.151 60.828,46.52 60.61,46.52   60.61,61.481 58.73,61.481 58.73,37.572 57.604,37.572 57.604,37.046 57.191,37.046 57.191,35.887 56.881,35.887 56.881,37.046   56.402,37.046 56.402,36.592 54.822,36.592 54.822,37.046 54.596,37.046 54.596,37.572 53.017,37.572 53.017,57.948 51.813,57.948   51.813,42.835 50.836,40.58 49.783,40.58 48.807,37.572 48.506,37.572 48.506,35.887 48.281,35.887 48.281,37.572 48.055,37.572   46.852,40.58 46.024,40.58 45.047,42.609 45.047,50.278 43.543,50.278 43.543,41.857 42.565,40.58 42.021,40.58 42.021,38.763   41.626,38.763 41.626,40.088 40.893,40.088 40.893,40.58 40.535,40.58 39.408,41.857 39.408,49.903 38.919,49.903 38.919,49.027   37.763,49.027 37.763,49.903 37.303,49.903 37.303,52.158 35.874,52.158 35.874,51.03 35.563,51.03 35.563,50.388 35.281,50.388   35.281,51.03 34.717,51.03 34.717,49.45 34.52,49.45 34.52,51.03 33.477,51.03 33.477,50.694 31.503,50.694 31.503,51.03   31.213,51.03 31.213,57.158 30.311,57.158 30.311,53.061 29.107,50.805 28.768,50.805 28.768,50.388 28.288,50.388 28.288,50.805   27.979,50.805 26.551,52.985 26.551,56.144 25.498,54.564 23.468,54.564 23.468,50.203 23.043,50.203 23.043,49.45 22.846,49.45   22.846,50.203 21.972,50.203 21.972,50.042 20.872,50.042 20.872,50.203 20.535,50.203 20.535,51.03 20.139,51.03 20.139,50.042   19.941,50.042 19.941,51.03 19.631,51.03 19.631,50.579 19.18,50.579 19.18,51.03 18.73,51.03 18.73,56.896 17.754,56.896   17.754,51.632 16.776,51.03 16.529,51.03 16.529,49.704 16.36,49.704 16.36,51.03 16.163,51.03 16.163,50.832 15.951,50.832   15.951,50.466 15.092,50.466 15.092,51.03 14.641,51.03 14.641,49.704 14.471,49.704 14.471,51.03 14.217,51.03 14.217,50.579   12.751,50.579 12.751,51.03 12.34,51.03 11.514,51.557 11.514,57.347 10.535,57.347 9.408,58.173 9.408,59.902 8.869,59.902   8.869,64.113 91.131,64.113 91.131,60.843 "/></svg>